<svg version="1.1" xmlns="http://www.w3.org/2000/svg" viewBox="0 0 185.4131549499141 253.56662248474254" width="370.8263098998282" height="507.1332449694851">
  <!-- svg-source:excalidraw -->
  
  <defs>
    <style class="style-fonts">
      @font-face {
        font-family: "Virgil";
        src: url("https://excalidraw.com/Virgil.woff2");
      }
      @font-face {
        font-family: "Cascadia";
        src: url("https://excalidraw.com/Cascadia.woff2");
      }
      @font-face {
        font-family: "Assistant";
        src: url("https://excalidraw.com/Assistant-Regular.woff2");
      }
    </style>
    
  </defs>
  <g stroke-linecap="round"><g transform="translate(93.24388951214087 10.500922509473753) rotate(0 -0.4046086438685279 88.4490699500881)" fill-rule="evenodd"><path d="M0 0 C-4.11 0.57, -16.51 1.28, -24.66 3.4 C-32.81 5.53, -41.39 7.3, -48.9 12.76 C-56.41 18.21, -64.99 30.4, -69.74 36.15 C-74.49 41.89, -75.2 41.11, -77.39 47.2 C-79.59 53.3, -84.55 62.16, -82.92 72.72 C-81.29 83.28, -78.74 93.2, -67.61 110.56 C-56.49 127.93, -30.09 165.9, -16.16 176.9 C-2.23 187.9, 6.69 181.03, 15.97 176.55 C25.24 172.07, 31.47 160.39, 39.51 150.03 C47.55 139.67, 57.61 125.29, 64.21 114.39 C70.81 103.49, 76.11 93.79, 79.09 84.62 C82.08 75.45, 82.32 66.03, 82.11 59.37 C81.9 52.71, 80.27 50.17, 77.82 44.65 C75.36 39.13, 71.99 31.82, 67.38 26.22 C62.77 20.62, 57.65 15.36, 50.18 11.06 C42.7 6.76, 30.9 2.27, 22.54 0.43 C14.17 -1.42, 3.76 0.07, 0 0" stroke="none" stroke-width="0" fill="#ffc9c9" fill-rule="evenodd"></path><path d="M0 0 C-4.11 0.57, -16.51 1.28, -24.66 3.4 C-32.81 5.53, -41.39 7.3, -48.9 12.76 C-56.41 18.21, -64.99 30.4, -69.74 36.15 C-74.49 41.89, -75.2 41.11, -77.39 47.2 C-79.59 53.3, -84.55 62.16, -82.92 72.72 C-81.29 83.28, -78.74 93.2, -67.61 110.56 C-56.49 127.93, -30.09 165.9, -16.16 176.9 C-2.23 187.9, 6.69 181.03, 15.97 176.55 C25.24 172.07, 31.47 160.39, 39.51 150.03 C47.55 139.67, 57.61 125.29, 64.21 114.39 C70.81 103.49, 76.11 93.79, 79.09 84.62 C82.08 75.45, 82.32 66.03, 82.11 59.37 C81.9 52.71, 80.27 50.17, 77.82 44.65 C75.36 39.13, 71.99 31.82, 67.38 26.22 C62.77 20.62, 57.65 15.36, 50.18 11.06 C42.7 6.76, 30.9 2.27, 22.54 0.43 C14.17 -1.42, 3.76 0.07, 0 0 M0 0 C-4.11 0.57, -16.51 1.28, -24.66 3.4 C-32.81 5.53, -41.39 7.3, -48.9 12.76 C-56.41 18.21, -64.99 30.4, -69.74 36.15 C-74.49 41.89, -75.2 41.11, -77.39 47.2 C-79.59 53.3, -84.55 62.16, -82.92 72.72 C-81.29 83.28, -78.74 93.2, -67.61 110.56 C-56.49 127.93, -30.09 165.9, -16.16 176.9 C-2.23 187.9, 6.69 181.03, 15.97 176.55 C25.24 172.07, 31.47 160.39, 39.51 150.03 C47.55 139.67, 57.61 125.29, 64.21 114.39 C70.81 103.49, 76.11 93.79, 79.09 84.62 C82.08 75.45, 82.32 66.03, 82.11 59.37 C81.9 52.71, 80.27 50.17, 77.82 44.65 C75.36 39.13, 71.99 31.82, 67.38 26.22 C62.77 20.62, 57.65 15.36, 50.18 11.06 C42.7 6.76, 30.9 2.27, 22.54 0.43 C14.17 -1.42, 3.76 0.07, 0 0" stroke="#c2255c" stroke-width="4" fill="none"></path></g></g><mask></mask><g stroke-linecap="round"><g transform="translate(82.51491081158997 12.392106937855843) rotate(0 10.304530051638721 86.99195629081939)" fill-rule="evenodd"><path d="M0 0 C1.62 -0.3, 6.22 -2.19, 9.75 -1.81 C13.28 -1.43, 18.81 -3.15, 21.17 2.26 C23.52 7.68, 23.28 22.13, 23.87 30.67 C24.45 39.21, 24.5 44.36, 24.65 53.48 C24.81 62.61, 24.9 77.21, 24.8 85.42 C24.69 93.62, 24.27 97.55, 24.03 102.71 C23.79 107.88, 23.83 109.16, 23.36 116.42 C22.89 123.67, 22.1 136.33, 21.2 146.23 C20.29 156.12, 20.63 170.87, 17.91 175.79 C15.19 180.72, 7.83 180.87, 4.88 175.79 C1.94 170.72, 1.47 155.37, 0.23 145.33 C-1.01 135.29, -1.82 125.44, -2.56 115.55 C-3.29 105.67, -3.92 96.33, -4.19 86.02 C-4.46 75.7, -4.38 62.76, -4.19 53.69 C-3.99 44.62, -3.72 40.54, -3.02 31.59 C-2.33 22.64, -0.5 5.27, 0 0" stroke="none" stroke-width="0" fill="#ffc9c9" fill-rule="evenodd"></path><path d="M0 0 C1.62 -0.3, 6.22 -2.19, 9.75 -1.81 C13.28 -1.43, 18.81 -3.15, 21.17 2.26 C23.52 7.68, 23.28 22.13, 23.87 30.67 C24.45 39.21, 24.5 44.36, 24.65 53.48 C24.81 62.61, 24.9 77.21, 24.8 85.42 C24.69 93.62, 24.27 97.55, 24.03 102.71 C23.79 107.88, 23.83 109.16, 23.36 116.42 C22.89 123.67, 22.1 136.33, 21.2 146.23 C20.29 156.12, 20.63 170.87, 17.91 175.79 C15.19 180.72, 7.83 180.87, 4.88 175.79 C1.94 170.72, 1.47 155.37, 0.23 145.33 C-1.01 135.29, -1.82 125.44, -2.56 115.55 C-3.29 105.67, -3.92 96.33, -4.19 86.02 C-4.46 75.7, -4.38 62.76, -4.19 53.69 C-3.99 44.62, -3.72 40.54, -3.02 31.59 C-2.33 22.64, -0.5 5.27, 0 0 M0 0 C1.62 -0.3, 6.22 -2.19, 9.75 -1.81 C13.28 -1.43, 18.81 -3.15, 21.17 2.26 C23.52 7.68, 23.28 22.13, 23.87 30.67 C24.45 39.21, 24.5 44.36, 24.65 53.48 C24.81 62.61, 24.9 77.21, 24.8 85.42 C24.69 93.62, 24.27 97.55, 24.03 102.71 C23.79 107.88, 23.83 109.16, 23.36 116.42 C22.89 123.67, 22.1 136.33, 21.2 146.23 C20.29 156.12, 20.63 170.87, 17.91 175.79 C15.19 180.72, 7.83 180.87, 4.88 175.79 C1.94 170.72, 1.47 155.37, 0.23 145.33 C-1.01 135.29, -1.82 125.44, -2.56 115.55 C-3.29 105.67, -3.92 96.33, -4.19 86.02 C-4.46 75.7, -4.38 62.76, -4.19 53.69 C-3.99 44.62, -3.72 40.54, -3.02 31.59 C-2.33 22.64, -0.5 5.27, 0 0" stroke="#c2255c" stroke-width="4" fill="none"></path></g></g><mask></mask><g stroke-linecap="round"><g transform="translate(115.97808244489784 12.239992152108513) rotate(0 9.794135054430967 90.10604250076621)" fill-rule="evenodd"><path d="M0 0 C1.25 2.26, 5.34 6.77, 7.48 13.53 C9.62 20.3, 11.69 30.21, 12.82 40.6 C13.95 50.99, 15.37 63.1, 14.25 75.86 C13.12 88.62, 9.02 105.12, 6.05 117.17 C3.09 129.22, 0.36 137.65, -3.56 148.16 C-7.48 158.66, -16.8 174.87, -17.45 180.21 C-18.1 185.55, -9.38 181.64, -7.48 180.21 C-5.58 178.79, -8.55 176.77, -6.05 171.66 C-3.56 166.56, 2.73 158.31, 7.48 149.58 C12.23 140.86, 18.4 129.34, 22.44 119.31 C26.47 109.28, 29.26 98.77, 31.7 89.39 C34.13 80.02, 36.62 72.42, 37.04 63.04 C37.46 53.66, 36.27 42.03, 34.19 33.12 C32.11 24.22, 29.8 15.02, 24.57 9.62 C19.35 4.21, 6.47 2.2, 2.85 0.71" stroke="none" stroke-width="0" fill="#ffc9c9" fill-rule="evenodd"></path><path d="M0 0 C1.25 2.26, 5.34 6.77, 7.48 13.53 C9.62 20.3, 11.69 30.21, 12.82 40.6 C13.95 50.99, 15.37 63.1, 14.25 75.86 C13.12 88.62, 9.02 105.12, 6.05 117.17 C3.09 129.22, 0.36 137.65, -3.56 148.16 C-7.48 158.66, -16.8 174.87, -17.45 180.21 C-18.1 185.55, -9.38 181.64, -7.48 180.21 C-5.58 178.79, -8.55 176.77, -6.05 171.66 C-3.56 166.56, 2.73 158.31, 7.48 149.58 C12.23 140.86, 18.4 129.34, 22.44 119.31 C26.47 109.28, 29.26 98.77, 31.7 89.39 C34.13 80.02, 36.62 72.42, 37.04 63.04 C37.46 53.66, 36.27 42.03, 34.19 33.12 C32.11 24.22, 29.8 15.02, 24.57 9.62 C19.35 4.21, 6.47 2.2, 2.85 0.71 M0 0 C1.25 2.26, 5.34 6.77, 7.48 13.53 C9.62 20.3, 11.69 30.21, 12.82 40.6 C13.95 50.99, 15.37 63.1, 14.25 75.86 C13.12 88.62, 9.02 105.12, 6.05 117.17 C3.09 129.22, 0.36 137.65, -3.56 148.16 C-7.48 158.66, -16.8 174.87, -17.45 180.21 C-18.1 185.55, -9.38 181.64, -7.48 180.21 C-5.58 178.79, -8.55 176.77, -6.05 171.66 C-3.56 166.56, 2.73 158.31, 7.48 149.58 C12.23 140.86, 18.4 129.34, 22.44 119.31 C26.47 109.28, 29.26 98.77, 31.7 89.39 C34.13 80.02, 36.62 72.42, 37.04 63.04 C37.46 53.66, 36.27 42.03, 34.19 33.12 C32.11 24.22, 29.8 15.02, 24.57 9.62 C19.35 4.21, 6.47 2.2, 2.85 0.71" stroke="#c2255c" stroke-width="4" fill="none"></path></g></g><mask></mask><g stroke-linecap="round"><g transform="translate(159.6813174059273 38.88357372584484) rotate(0 -16.14447624203376 72.42717421389528)" fill-rule="evenodd"><path d="M0 0 C0.7 4.15, 3.7 16.8, 4.23 24.93 C4.75 33.06, 4.58 40.18, 3.16 48.79 C1.73 57.4, 4.07 60.56, -4.32 76.57 C-12.71 92.58, -47.38 143.31, -47.2 144.85 C-47.02 146.4, -12 98.04, -3.25 85.83 C5.5 73.62, 2.62 76.87, 5.29 71.59 C7.97 66.3, 11.17 59.3, 12.77 54.13 C14.38 48.97, 15.39 46.77, 14.91 40.6 C14.44 34.43, 12.41 23.86, 9.92 17.09 C7.44 10.33, 1.65 2.85, 0 0" stroke="none" stroke-width="0" fill="#ffc9c9" fill-rule="evenodd"></path><path d="M0 0 C0.7 4.15, 3.7 16.8, 4.23 24.93 C4.75 33.06, 4.58 40.18, 3.16 48.79 C1.73 57.4, 4.07 60.56, -4.32 76.57 C-12.71 92.58, -47.38 143.31, -47.2 144.85 C-47.02 146.4, -12 98.04, -3.25 85.83 C5.5 73.62, 2.62 76.87, 5.29 71.59 C7.97 66.3, 11.17 59.3, 12.77 54.13 C14.38 48.97, 15.39 46.77, 14.91 40.6 C14.44 34.43, 12.41 23.86, 9.92 17.09 C7.44 10.33, 1.65 2.85, 0 0 M0 0 C0.7 4.15, 3.7 16.8, 4.23 24.93 C4.75 33.06, 4.58 40.18, 3.16 48.79 C1.73 57.4, 4.07 60.56, -4.32 76.57 C-12.71 92.58, -47.38 143.31, -47.2 144.85 C-47.02 146.4, -12 98.04, -3.25 85.83 C5.5 73.62, 2.62 76.87, 5.29 71.59 C7.97 66.3, 11.17 59.3, 12.77 54.13 C14.38 48.97, 15.39 46.77, 14.91 40.6 C14.44 34.43, 12.41 23.86, 9.92 17.09 C7.44 10.33, 1.65 2.85, 0 0" stroke="#c2255c" stroke-width="4" fill="none"></path></g></g><mask></mask><g stroke-linecap="round"><g transform="translate(70.61937636036464 13.712888057419619) rotate(0 -9.794135054430967 90.10604250076622)" fill-rule="evenodd"><path d="M0 0 C-1.25 2.26, -5.34 6.77, -7.48 13.53 C-9.62 20.3, -11.69 30.21, -12.82 40.6 C-13.95 50.99, -15.37 63.1, -14.25 75.86 C-13.12 88.62, -9.02 105.12, -6.05 117.17 C-3.09 129.22, -0.36 137.65, 3.56 148.16 C7.48 158.66, 16.8 174.87, 17.45 180.21 C18.1 185.55, 9.38 181.64, 7.48 180.21 C5.58 178.79, 8.55 176.77, 6.05 171.66 C3.56 166.56, -2.73 158.31, -7.48 149.58 C-12.23 140.86, -18.4 129.34, -22.44 119.31 C-26.47 109.28, -29.26 98.77, -31.7 89.39 C-34.13 80.02, -36.62 72.42, -37.04 63.04 C-37.46 53.66, -36.27 42.03, -34.19 33.12 C-32.11 24.22, -29.8 15.02, -24.57 9.62 C-19.35 4.21, -6.47 2.2, -2.85 0.71" stroke="none" stroke-width="0" fill="#ffc9c9" fill-rule="evenodd"></path><path d="M0 0 C-1.25 2.26, -5.34 6.77, -7.48 13.53 C-9.62 20.3, -11.69 30.21, -12.82 40.6 C-13.95 50.99, -15.37 63.1, -14.25 75.86 C-13.12 88.62, -9.02 105.12, -6.05 117.17 C-3.09 129.22, -0.36 137.65, 3.56 148.16 C7.48 158.66, 16.8 174.87, 17.45 180.21 C18.1 185.55, 9.38 181.64, 7.48 180.21 C5.58 178.79, 8.55 176.77, 6.05 171.66 C3.56 166.56, -2.73 158.31, -7.48 149.58 C-12.23 140.86, -18.4 129.34, -22.44 119.31 C-26.47 109.28, -29.26 98.77, -31.7 89.39 C-34.13 80.02, -36.62 72.42, -37.04 63.04 C-37.46 53.66, -36.27 42.03, -34.19 33.12 C-32.11 24.22, -29.8 15.02, -24.57 9.62 C-19.35 4.21, -6.47 2.2, -2.85 0.71 M0 0 C-1.25 2.26, -5.34 6.77, -7.48 13.53 C-9.62 20.3, -11.69 30.21, -12.82 40.6 C-13.95 50.99, -15.37 63.1, -14.25 75.86 C-13.12 88.62, -9.02 105.12, -6.05 117.17 C-3.09 129.22, -0.36 137.65, 3.56 148.16 C7.48 158.66, 16.8 174.87, 17.45 180.21 C18.1 185.55, 9.38 181.64, 7.48 180.21 C5.58 178.79, 8.55 176.77, 6.05 171.66 C3.56 166.56, -2.73 158.31, -7.48 149.58 C-12.23 140.86, -18.4 129.34, -22.44 119.31 C-26.47 109.28, -29.26 98.77, -31.7 89.39 C-34.13 80.02, -36.62 72.42, -37.04 63.04 C-37.46 53.66, -36.27 42.03, -34.19 33.12 C-32.11 24.22, -29.8 15.02, -24.57 9.62 C-19.35 4.21, -6.47 2.2, -2.85 0.71" stroke="#c2255c" stroke-width="4" fill="none"></path></g></g><mask></mask><g stroke-linecap="round"><g transform="translate(26.12246013933259 44.277455564825814) rotate(0 14.292796440595453 67.48936141005933)" fill-rule="evenodd"><path d="M0 0 C-0.65 3.38, -3.44 12.94, -3.92 20.3 C-4.39 27.66, -4.27 35.56, -2.85 44.16 C-1.42 52.77, -3.04 56.81, 4.63 71.94 C12.3 87.08, 43.37 133.44, 43.19 134.98 C43.01 136.52, 11.59 92.54, 3.56 81.2 C-4.47 69.87, -2.31 72.24, -4.99 66.96 C-7.66 61.67, -10.86 54.67, -12.47 49.5 C-14.07 44.34, -15.08 42.14, -14.6 35.97 C-14.13 29.8, -12.05 18.46, -9.62 12.47 C-7.18 6.47, -1.6 2.08, 0 0" stroke="none" stroke-width="0" fill="#ffc9c9" fill-rule="evenodd"></path><path d="M0 0 C-0.65 3.38, -3.44 12.94, -3.92 20.3 C-4.39 27.66, -4.27 35.56, -2.85 44.16 C-1.42 52.77, -3.04 56.81, 4.63 71.94 C12.3 87.08, 43.37 133.44, 43.19 134.98 C43.01 136.52, 11.59 92.54, 3.56 81.2 C-4.47 69.87, -2.31 72.24, -4.99 66.96 C-7.66 61.67, -10.86 54.67, -12.47 49.5 C-14.07 44.34, -15.08 42.14, -14.6 35.97 C-14.13 29.8, -12.05 18.46, -9.62 12.47 C-7.18 6.47, -1.6 2.08, 0 0 M0 0 C-0.65 3.38, -3.44 12.94, -3.92 20.3 C-4.39 27.66, -4.27 35.56, -2.85 44.16 C-1.42 52.77, -3.04 56.81, 4.63 71.94 C12.3 87.08, 43.37 133.44, 43.19 134.98 C43.01 136.52, 11.59 92.54, 3.56 81.2 C-4.47 69.87, -2.31 72.24, -4.99 66.96 C-7.66 61.67, -10.86 54.67, -12.47 49.5 C-14.07 44.34, -15.08 42.14, -14.6 35.97 C-14.13 29.8, -12.05 18.46, -9.62 12.47 C-7.18 6.47, -1.6 2.08, 0 0" stroke="#c2255c" stroke-width="4" fill="none"></path></g></g><mask></mask><g stroke-linecap="round"><g transform="translate(110.67379285092329 187.13541900248288) rotate(0 -16.36436854173155 8.70258886224758)" fill-rule="evenodd"><path d="M0 0 C-0.92 2.52, -2.86 12.21, -5.5 15.12 C-8.14 18.02, -12.21 17.33, -15.82 17.41 C-19.43 17.48, -24.33 18.36, -27.14 15.56 C-29.96 12.76, -37.25 3.21, -32.73 0.62 C-28.2 -1.98, -5.45 0.1, 0 0" stroke="none" stroke-width="0" fill="#ffc9c9" fill-rule="evenodd"></path><path d="M0 0 C-0.92 2.52, -2.86 12.21, -5.5 15.12 C-8.14 18.02, -12.21 17.33, -15.82 17.41 C-19.43 17.48, -24.33 18.36, -27.14 15.56 C-29.96 12.76, -37.25 3.21, -32.73 0.62 C-28.2 -1.98, -5.45 0.1, 0 0 M0 0 C-0.92 2.52, -2.86 12.21, -5.5 15.12 C-8.14 18.02, -12.21 17.33, -15.82 17.41 C-19.43 17.48, -24.33 18.36, -27.14 15.56 C-29.96 12.76, -37.25 3.21, -32.73 0.62 C-28.2 -1.98, -5.45 0.1, 0 0" stroke="#c2255c" stroke-width="4" fill="none"></path></g></g><mask></mask><g stroke-linecap="round"><g transform="translate(104.8134281730438 204.08566708503264) rotate(0 -1.4061666441426723 5.3978655049348845)"><path d="M0 0 C-0.47 1.8, -2.34 9, -2.81 10.8 M0 0 C-0.47 1.8, -2.34 9, -2.81 10.8" stroke="#f08c00" stroke-width="2" fill="none"></path></g></g><mask></mask><g stroke-linecap="round"><g transform="translate(84.76421344042865 204.62998965695886) rotate(0 1.0886451438523181 5.034983790317398)"><path d="M0 0 C0.36 1.68, 1.81 8.39, 2.18 10.07 M0 0 C0.36 1.68, 1.81 8.39, 2.18 10.07" stroke="#f08c00" stroke-width="2" fill="none"></path></g></g><mask></mask><g stroke-linecap="round"><g transform="translate(90.11671873103614 205.90007565812) rotate(0 -1.0432849295251572 4.309220361082453)"><path d="M0 0 C-0.35 1.44, -1.74 7.18, -2.09 8.62 M0 0 C-0.35 1.44, -1.74 7.18, -2.09 8.62" stroke="#f08c00" stroke-width="2" fill="none"></path></g></g><mask></mask><g stroke-linecap="round"><g transform="translate(99.27948202512744 205.8093552294656) rotate(0 0.7711236435620776 4.5360214327184)"><path d="M0 0 C0.26 1.51, 1.29 7.56, 1.54 9.07 M0 0 C0.26 1.51, 1.29 7.56, 1.54 9.07" stroke="#f08c00" stroke-width="2" fill="none"></path></g></g><mask></mask><g stroke-linecap="round"><g transform="translate(86.94150372813328 214.97211852355673) rotate(0 7.529795578312587 0)"><path d="M0 0 C2.51 0, 12.55 0, 15.06 0 M0 0 C2.51 0, 12.55 0, 15.06 0" stroke="#f08c00" stroke-width="2" fill="none"></path></g></g><mask></mask><g stroke-linecap="round"><g transform="translate(101.36605188417775 215.0628389522111) rotate(0 1.3154462154883504 6.259709577151369)"><path d="M0 0 C0.44 2.09, 2.19 10.43, 2.63 12.52 M0 0 C0.44 2.09, 2.19 10.43, 2.63 12.52" stroke="#f08c00" stroke-width="2" fill="none"></path></g></g><mask></mask><g stroke-linecap="round"><g transform="translate(87.3043854427508 215.24427980951987) rotate(0 -1.1340053581795928 5.942188076861072)"><path d="M0 0 C-0.38 1.98, -1.89 9.9, -2.27 11.88 M0 0 C-0.38 1.98, -1.89 9.9, -2.27 11.88" stroke="#f08c00" stroke-width="2" fill="none"></path></g></g><mask></mask><g stroke-linecap="round"><g transform="translate(83.49412743926746 227.58225810651385) rotate(0 11.15861272448717 -0.09072042865435037)"><path d="M0 0 C3.72 -0.03, 18.6 -0.15, 22.32 -0.18 M0 0 C3.72 -0.03, 18.6 -0.15, 22.32 -0.18" stroke="#f08c00" stroke-width="2" fill="none"></path></g></g><mask></mask><g stroke-linecap="round"><g transform="translate(104.08766474380877 227.40081724920515) rotate(0 -9.707085866017223 7.257634292349394)"><path d="M0 0 C0.02 2.39, 3.25 11.91, 0.09 14.33 C-3.07 16.75, -15.69 16.74, -18.96 14.52 C-22.23 12.29, -19.41 3.25, -19.5 1 M0 0 C0.02 2.39, 3.25 11.91, 0.09 14.33 C-3.07 16.75, -15.69 16.74, -18.96 14.52 C-22.23 12.29, -19.41 3.25, -19.5 1" stroke="#f08c00" stroke-width="2" fill="none"></path></g></g><mask></mask><g stroke-linecap="round" transform="translate(84.21989086850226 228.21730110709444) rotate(0 10.206048223616335 7.076193435040665)"><path d="M3.54 0 C6.79 0, 10.04 0, 16.87 0 C19.23 0, 20.41 1.18, 20.41 3.54 C20.41 6.01, 20.41 8.48, 20.41 10.61 C20.41 12.97, 19.23 14.15, 16.87 14.15 C12.83 14.15, 8.79 14.15, 3.54 14.15 C1.18 14.15, 0 12.97, 0 10.61 C0 7.81, 0 5.01, 0 3.54 C0 1.18, 1.18 0, 3.54 0" stroke="none" stroke-width="0" fill="#ffec99"></path><path d="M3.54 0 C8.16 0, 12.79 0, 16.87 0 M3.54 0 C7.72 0, 11.9 0, 16.87 0 M16.87 0 C19.23 0, 20.41 1.18, 20.41 3.54 M16.87 0 C19.23 0, 20.41 1.18, 20.41 3.54 M20.41 3.54 C20.41 5.79, 20.41 8.03, 20.41 10.61 M20.41 3.54 C20.41 5.78, 20.41 8.02, 20.41 10.61 M20.41 10.61 C20.41 12.97, 19.23 14.15, 16.87 14.15 M20.41 10.61 C20.41 12.97, 19.23 14.15, 16.87 14.15 M16.87 14.15 C12.66 14.15, 8.44 14.15, 3.54 14.15 M16.87 14.15 C12.71 14.15, 8.54 14.15, 3.54 14.15 M3.54 14.15 C1.18 14.15, 0 12.97, 0 10.61 M3.54 14.15 C1.18 14.15, 0 12.97, 0 10.61 M0 10.61 C0 8.39, 0 6.16, 0 3.54 M0 10.61 C0 8.35, 0 6.08, 0 3.54 M0 3.54 C0 1.18, 1.18 0, 3.54 0 M0 3.54 C0 1.18, 1.18 0, 3.54 0" stroke="#f08c00" stroke-width="1" fill="none"></path></g></svg>