<?xml version="1.0" encoding="UTF-8"?>
<svg id="Layer_2" data-name="Layer 2" xmlns="http://www.w3.org/2000/svg" viewBox="0 0 523.93 460.26">
  <defs>
    <style>
      .cls-1 {
        fill: #fff;
        stroke: #646464;
        stroke-width: 1px;
        stroke-dasharray: 2,2;
        stroke-linejoin: round;
      }
    </style>
  </defs>
  <g id="Layer_1-2" data-name="Layer 1">
    <g id="Layer_1-3" data-name="Layer 1">
      <path class="cls-1" d="m523.84,364.29c-2.03-49.86-44.14-82.86-87.4-82.11,5.04-24.3,3.12-48.94-14.67-69.77-9.96-11.66-23.32-18.47-37.11-20.47,7.53-63.23-28.13-128.11-83.47-162.35C235.33-11.14,144.09-11.47,83.26,38.92,26.85,85.65,5.43,170.67,31.62,238.83c3.21,8.35,6.95,16.58,11.55,24.26,2.06,3.44,4.3,6.71,6.62,9.97.53.74.99,1.47,1.42,2.16-4.03,2.24-7.81,5.28-11.39,7.97-8.86,6.66-16.58,14.19-23.17,23.09-25.36,34.29-21.07,78.88,8.18,109.49,38.19,39.97,99.32,40.4,150.65,41.24,62.59,1.03,124.96-4.61,186.6-15.31,1.26-.22,2.42-.53,3.52-.89,1.73,2.06,3.93,3.94,6.73,5.52,64.42,36.41,154.79-1.32,151.5-82.06Z"/>
    </g>
  </g>
</svg>