<?xml version="1.0" encoding="UTF-8"?>
<svg id="Layer_2" data-name="Layer 2" xmlns="http://www.w3.org/2000/svg" viewBox="0 0 476.16 372.53">

  <g id="Layer_1-2" data-name="Layer 1">
    <g id="Layer_1-3" data-name="Layer 1">
      <path class="cls-1" d="m472.56,209.83c-9.72-43.24-39.7-86.35-84.17-98.57-23.26-6.39-49.15-3.47-70.4,7.61.51-50.24-24.22-100.95-76.04-115.73-35.77-10.21-73.11,5.26-91.86,34.03-24.29-12.2-55.51-11.75-79.64,1.68C23.8,64.82,5.43,123.88.81,173.73c-4.55,49,9.7,102.31,50.54,132.77,29.53,22.02,69.94,30.52,104.12,17.31,26.16,35.54,72.11,52.9,116.29,47.86,30.73-3.51,74.5-18.62,97.49-45.13,17.76,8.89,39.84,9.98,59.11,2.02,45.7-18.9,53.86-75.79,44.21-118.73Z"/>
    </g>
  </g>
</svg>