<?xml version="1.0" encoding="UTF-8"?>
<svg id="Layer_2" data-name="Layer 2" xmlns="http://www.w3.org/2000/svg" viewBox="0 0 495.46 334.44">

  <g id="Layer_1-2" data-name="Layer 1">
    <g id="Layer_1-3" data-name="Layer 1">
      <path class="cls-1" d="m348.41,94.35C339.7,44.55,301.59,2.81,245.75.12c-30.14-1.45-57.29,10.63-76.54,30.19C90.04-7.29-8.41,55.74.57,148.01c8,82.27,92.7,124.48,161.56,97.94,10.16,48.71,57.48,86.26,109.95,88.39,33.76,1.37,76.09-10.32,99.94-35.7.94-1,1.75-2.07,2.59-3.11,17.1,4.92,36.2,4.34,54.17-2.2,40.86-14.88,65.33-57.78,66.62-99.92,2.47-80.03-81.26-123.61-147-99.04Z"/>
    </g>
  </g>
</svg>