<?xml version="1.0" encoding="UTF-8"?>
<svg id="Layer_2" data-name="Layer 2" xmlns="http://www.w3.org/2000/svg" viewBox="0 0 496.36 378.2">

  <g id="Layer_1-2" data-name="Layer 1">
    <g id="Layer_1-3" data-name="Layer 1">
      <path class="cls-1" d="m475.95,108.85c-24.23-34.68-71.48-51.35-108.11-36.9C343.61,10.69,256.85-11.52,191.8,5.58c-74.48,19.58-107.68,93.84-88.33,159.76-20.42-4.45-42.63-1.18-61.32,9.63C5.3,196.29-6.95,242.32,3.69,281.84c11.3,41.97,46.86,74.46,90.14,79.75,36.25,4.43,69.1-8.62,98.04-28.34,30.95,48.12,106.47,52.64,160.71,36.68,34.6-10.18,65.84-30.73,85.87-61.08,10.73-16.26,19.86-38.34,19.33-58.82,48.46-21.29,47.43-99.32,18.18-141.18Z"/>
    </g>
  </g>
</svg>