
<svg id="Layer_2" data-name="Layer 2" xmlns="http://www.w3.org/2000/svg" viewBox="0 0 604.74 321.33">
 
  <g id="Layer_1-2" data-name="Layer 1">
    <g id="Layer_1-3" data-name="Layer 1">
      <g>
        <path class="cls-1" d="m467.18,178.07c-4.43-23.07-16.89-42.83-33.55-58.49,3.21-45.65-32.48-88.4-77.91-103.94-38.45-13.15-78.35-3.77-104.44,21.24C215.51-15.7,110.13-6.39,67.4,29.41c-32.48,27.21-42.25,72.83-33.16,114.08-14.22,10.52-25.04,25.88-30.43,42.57-18.53,57.39,33.52,110.08,91.1,100.27,3.91-.66,7.78-1.68,11.56-2.97,10.95,8.6,23.24,15.63,36.15,20.85,43.51,17.59,94.85,19.22,141.07,15.47,45.82-3.71,97.79-11.6,136.38-38.49,33.54-23.37,55.07-61.65,47.12-103.12Z"/>
        <path class="cls-1" d="m599.73,215.39c-4.81-10.43-13.02-19.68-24.35-25.88-28.14-15.4-102.85-4.22-100.54,38.85,2.66,49.54,61.62,76.93,103.92,53.3,25.61-14.31,31.63-43.17,20.98-66.27Z"/>
        <path class="cls-1" d="m536.17,126.42c-30.34,0-30.4,47.16,0,47.16s30.39-47.16,0-47.16Z"/>
      </g>
    </g>
  </g>
</svg>