<?xml version="1.0" encoding="UTF-8"?>
<svg id="Layer_2" data-name="Layer 2" xmlns="http://www.w3.org/2000/svg" viewBox="0 0 793.78 296.28">
 
  <g id="Layer_1-2" data-name="Layer 1">
    <g id="Layer_1-3" data-name="Layer 1">
      <g>
        <path class="cls-1" d="m662.27,256.22c5.23-8.27,8.75-18.34,9.91-30.56,2.28-24-7.82-51.09-29.53-63.6-1.29-.74-2.59-1.39-3.9-1.99,17.62-66.18-20.37-142.73-92.36-157.3-39.7-8.04-82.61,1.4-113.18,28.59-17.43,15.5-30.93,37.9-31.33,61.72-.11,6.18.86,11.95,2.45,17.47-5.26.36-10.51,1.32-15.6,3.03-10.96,3.68-19.71,10.1-26.61,18.16-30.72-50.75-95.13-78.7-155.72-55.56-72.86,27.83-109.67,125.87-74.54,192.29,0,0-154.51,27.31-129.01,27.31h156.73c1.46.32,3.04.5,4.73.5h380.95c1.66,0,3.19-.18,4.63-.5h160.49c25.45,0-48.1-39.56-48.1-39.56Z"/>
        <path class="cls-1" d="m773.74,171.26c-13.96-27.52-52.08-31.04-73.69-10.79-8.89,8.33-13.81,20.5-13.37,32.37-.97,26.86,22.33,50.05,50.51,47.12,33.64-3.5,51.76-38.74,36.55-68.7Z"/>
        <path class="cls-1" d="m771.01,90.41c-30.34,0-30.4,47.16,0,47.16,30.34,0,30.39-47.16,0-47.16Z"/>
      </g>
    </g>
  </g>
</svg>