<?xml version="1.0" encoding="UTF-8"?>
<svg id="Layer_2" data-name="Layer 2" xmlns="http://www.w3.org/2000/svg" viewBox="0 0 682.63 413">
  <defs>
    <style>
      .cls-1 {
        fill: #fff;
      }
    </style>
  </defs>
  <g id="Layer_1-2" data-name="Layer 1">
    <g id="Layer_1-3" data-name="Layer 1">
      <path class="cls-1" d="m609.68,159.48c5.48-54.2-32.56-107.19-84.42-125.3-40.73-14.22-114.09-9.84-151.82,23.73C339.18,13.25,279.49-11.45,223.31,5.24c-56.31,16.72-93.9,70.08-98.15,126.6-29.23-6.13-60.55.8-84.86,19.72C4.39,179.48-7.87,229.74,4.93,272.63c12.88,43.17,49.53,74.93,91.9,87.85,41.14,12.55,84.73,5.44,122.7-13.04,24.83,48.31,84.49,72.66,138.29,63.74,33.7-5.59,64.03-22.2,90.45-43.34,6.74-5.4,17.84-12.53,22.33-20.05,2.36,1.68,4.75,3.3,7.22,4.83,14.19,8.74,30.28,15.57,46.54,19.2,64.51,14.41,139.21-19.32,155.33-87.43,13.04-55.06-18.48-112.39-70-124.91Z"/>
    </g>
  </g>
</svg>