<?xml version="1.0" encoding="UTF-8"?>
<svg id="Layer_2" data-name="Layer 2" xmlns="http://www.w3.org/2000/svg" viewBox="0 0 631.27 411.96">
  <defs>
    <style>
      .cls-1 {
        fill: #fff;
        stroke: #646464;
        stroke-width: 1px;
        stroke-dasharray: 2,2;
        stroke-linejoin: round;
      }
    </style>
  </defs>
  <g id="Layer_1-2" data-name="Layer 1">
    <g id="Layer_1-3" data-name="Layer 1">
      <path class="cls-1" d="m559.7,203.81c-3.82-1.57-7.83-2.87-11.95-3.93.38-2.95.69-5.91.85-8.84,1.92-35.59-13.25-72.96-39.86-96.76-38.32-34.25-94.28-34.46-136.05-9.94C358.03,40.4,323.63,4.8,273.46.37c-47.75-4.22-90.58,28.51-100.2,71.8C93.04,47.19,3.55,104.73.09,195.08c-1.76,46.05,21.7,97.56,66.67,115.05,5.2,2.02,10.51,3.3,15.81,3.96,8.81,26.82,32.14,46.37,58.7,57.08,41.19,16.61,101.27,16.26,137.89-11.8,20.33,31.54,57.17,51.2,97.28,52.51,33.52,1.1,76.4-11.43,102.12-36.8,15.59,15.94,37.05,26.18,60.44,26.51,48.42.68,86.73-41.63,91.72-87.83,5.19-48.05-27.76-92.2-71.02-109.97Z"/>
    </g>
  </g>
</svg>